<svg width="39" height="40" viewBox="0 0 39 40" fill="none" xmlns="http://www.w3.org/2000/svg">
<path d="M12 19H5C4.46957 19 3.96086 19.2107 3.58579 19.5858C3.21071 19.9609 3 20.4696 3 21V35C3 35.5304 3.21071 36.0391 3.58579 36.4142C3.96086 36.7893 4.46957 37 5 37H19C19.5304 37 20.0391 36.7893 20.4142 36.4142C20.7893 36.0391 21 35.5304 21 35V28" stroke="#000040" stroke-width="2" stroke-linecap="round" stroke-linejoin="round"/>
<path d="M18.375 18.625C18.7728 18.2272 19.3124 18.0037 19.875 18.0037C20.4376 18.0037 20.9772 18.2272 21.375 18.625C21.7728 19.0228 21.9963 19.5624 21.9963 20.125C21.9963 20.6876 21.7728 21.2272 21.375 21.625L12.362 30.639C12.1245 30.8762 11.8312 31.0499 11.509 31.144L8.636 31.984C8.54995 32.0091 8.45874 32.0106 8.37191 31.9884C8.28508 31.9661 8.20583 31.9209 8.14245 31.8576C8.07907 31.7942 8.03389 31.7149 8.01164 31.6281C7.9894 31.5413 7.9909 31.45 8.016 31.364L8.856 28.491C8.95053 28.169 9.12453 27.8761 9.362 27.639L18.375 18.625Z" stroke="#000040" stroke-width="2" stroke-linecap="round" stroke-linejoin="round"/>
<path d="M27.0194 1.81639C27.0622 1.587 27.184 1.37981 27.3635 1.23071C27.543 1.08162 27.769 1 28.0024 1C28.2358 1 28.4618 1.08162 28.6413 1.23071C28.8208 1.37981 28.9425 1.587 28.9854 1.81639L30.0364 7.37439C30.111 7.76954 30.3031 8.13301 30.5874 8.41737C30.8718 8.70172 31.2352 8.89375 31.6304 8.96839L37.1884 10.0194C37.4178 10.0622 37.625 10.184 37.7741 10.3635C37.9232 10.543 38.0048 10.769 38.0048 11.0024C38.0048 11.2358 37.9232 11.4618 37.7741 11.6413C37.625 11.8208 37.4178 11.9425 37.1884 11.9854L31.6304 13.0364C31.2352 13.111 30.8718 13.3031 30.5874 13.5874C30.3031 13.8718 30.111 14.2352 30.0364 14.6304L28.9854 20.1884C28.9425 20.4178 28.8208 20.625 28.6413 20.7741C28.4618 20.9232 28.2358 21.0048 28.0024 21.0048C27.769 21.0048 27.543 20.9232 27.3635 20.7741C27.184 20.625 27.0622 20.4178 27.0194 20.1884L25.9684 14.6304C25.8937 14.2352 25.7017 13.8718 25.4174 13.5874C25.133 13.3031 24.7695 13.111 24.3744 13.0364L18.8164 11.9854C18.587 11.9425 18.3798 11.8208 18.2307 11.6413C18.0816 11.4618 18 11.2358 18 11.0024C18 10.769 18.0816 10.543 18.2307 10.3635C18.3798 10.184 18.587 10.0622 18.8164 10.0194L24.3744 8.96839C24.7695 8.89375 25.133 8.70172 25.4174 8.41737C25.7017 8.13301 25.8937 7.76954 25.9684 7.37439L27.0194 1.81639Z" stroke="#000040" stroke-width="2" stroke-linecap="round" stroke-linejoin="round"/>
</svg>
